# xmcd
#
# Track frame offsets:
#	150
#	14477
#	28559
#	41925
#	53492
#	70402
#	81650
#	95555
#	107657
#	120296
#	136742
#	153436
#
# Disc length: 2191 seconds
#
# Revision: 0
# Processed by: cddbd v1.4PL0 Copyright (c) Steve Scherf et al.
# Submitted via: dBpowerAMP V4.0
#
DISCID=9b088d0c
DTITLE=CRISTY LANE - CRISTY LANE AT HER BEST
DYEAR=1900
DGENRE=Country
TTITLE0=ONE DAY AT A TIME 
TTITLE1=ITS NOW OR NEVER
TTITLE2=SWEET DREAMS
TTITLE3=MEMORIES ARE MADE OF THIS 
TTITLE4=ALL IN  HIS HANDS
TTITLE5=AMOUNG  MY SOUVENIRS
TTITLE6=I LOVE YOU SO MUCH IT HURTS
TTITLE7=CRYING IN THE CHAPEL
TTITLE8=ONWARD CHRISTIAN SOLDIERS
TTITLE9=DANNY BOY
TTITLE10=AMERICA THE BEAUTIFUL
TTITLE11=LADY LIBERTY
EXTD=
EXTT0=
EXTT1=
EXTT2=
EXTT3=
EXTT4=
EXTT5=
EXTT6=
EXTT7=
EXTT8=
EXTT9=
EXTT10=
EXTT11=
PLAYORDER=
